<svg width="40" height="41" viewBox="0 0 40 41" fill="none" xmlns="http://www.w3.org/2000/svg">
<g filter="url(#filter0_dd_117_370)">
<path d="M28.4997 11.2059C28.4572 11.2059 28.4289 11.2059 28.3864 11.2059H28.3156C25.6381 11.1209 23.6406 9.05254 23.6406 6.50254C23.6406 3.89587 25.7656 1.78503 28.3581 1.78503C30.9506 1.78503 33.0756 3.91004 33.0756 6.50254C33.0614 9.0667 31.0639 11.135 28.5139 11.22C28.5139 11.2059 28.5139 11.2059 28.4997 11.2059ZM28.3581 3.89588C26.9272 3.89588 25.7656 5.05754 25.7656 6.48838C25.7656 7.89088 26.8564 9.02421 28.2589 9.08088C28.2731 9.06671 28.3864 9.06671 28.5139 9.08088C29.8881 9.01005 30.9506 7.87671 30.9647 6.48838C30.9647 5.05754 29.8031 3.89588 28.3581 3.89588Z" fill="white"/>
<path d="M28.5142 21.6467C27.9617 21.6467 27.4092 21.6042 26.8567 21.505C26.2759 21.4059 25.8934 20.8534 25.9925 20.2725C26.0917 19.6917 26.6442 19.3092 27.225 19.4084C28.9675 19.7059 30.8092 19.3801 32.0417 18.5584C32.7075 18.1192 33.0617 17.5667 33.0617 17.0142C33.0617 16.4617 32.6934 15.9234 32.0417 15.4842C30.8092 14.6625 28.9392 14.3367 27.1825 14.6484C26.6017 14.7617 26.0492 14.365 25.95 13.7842C25.8509 13.2034 26.2334 12.6509 26.8142 12.5517C29.1234 12.1409 31.5175 12.58 33.2175 13.7134C34.4642 14.5492 35.1867 15.7392 35.1867 17.0142C35.1867 18.275 34.4784 19.4792 33.2175 20.3292C31.9284 21.1792 30.2567 21.6467 28.5142 21.6467Z" fill="white"/>
<path d="M11.4575 11.2058C11.4433 11.2058 11.4292 11.2058 11.4292 11.2058C8.87916 11.1208 6.88166 9.05247 6.86749 6.50247C6.86749 3.89581 8.9925 1.77081 11.585 1.77081C14.1775 1.77081 16.3025 3.89582 16.3025 6.48832C16.3025 9.05248 14.305 11.1208 11.755 11.2058L11.4575 10.1433L11.5567 11.2058C11.5283 11.2058 11.4858 11.2058 11.4575 11.2058ZM11.5992 9.08082C11.6842 9.08082 11.755 9.08081 11.84 9.09498C13.1008 9.03831 14.2058 7.90497 14.2058 6.50247C14.2058 5.07164 13.0442 3.90997 11.6133 3.90997C10.1825 3.90997 9.02083 5.07164 9.02083 6.50247C9.02083 7.89081 10.0975 9.00998 11.4717 9.09498C11.4858 9.08081 11.5425 9.08082 11.5992 9.08082Z" fill="white"/>
<path d="M11.4433 21.6467C9.70081 21.6467 8.02915 21.1792 6.73998 20.3292C5.49331 19.4934 4.77081 18.2892 4.77081 17.0142C4.77081 15.7534 5.49331 14.5492 6.73998 13.7134C8.43998 12.58 10.8341 12.1409 13.1433 12.5517C13.7241 12.6509 14.1066 13.2034 14.0075 13.7842C13.9083 14.365 13.3558 14.7617 12.775 14.6484C11.0183 14.3367 9.16248 14.6625 7.91581 15.4842C7.24998 15.9234 6.89581 16.4617 6.89581 17.0142C6.89581 17.5667 7.26415 18.1192 7.91581 18.5584C9.14831 19.3801 10.99 19.7059 12.7325 19.4084C13.3133 19.3092 13.8658 19.7059 13.965 20.2725C14.0641 20.8534 13.6816 21.4059 13.1008 21.505C12.5483 21.6042 11.9958 21.6467 11.4433 21.6467Z" fill="white"/>
<path d="M19.9997 21.7883C19.9572 21.7883 19.9289 21.7883 19.8864 21.7883H19.8156C17.1381 21.7033 15.1406 19.635 15.1406 17.085C15.1406 14.4783 17.2656 12.3675 19.8581 12.3675C22.4506 12.3675 24.5756 14.4925 24.5756 17.085C24.5614 19.6492 22.5639 21.7175 20.0139 21.8025C20.0139 21.7883 20.0139 21.7883 19.9997 21.7883ZM19.8581 14.4783C18.4272 14.4783 17.2656 15.64 17.2656 17.0708C17.2656 18.4733 18.3564 19.6067 19.7589 19.6633C19.7731 19.6492 19.8864 19.6492 20.0139 19.6633C21.3881 19.5925 22.4506 18.4592 22.4647 17.0708C22.4647 15.6542 21.3031 14.4783 19.8581 14.4783Z" fill="white"/>
<path d="M19.9997 32.2433C18.2997 32.2433 16.5997 31.8041 15.2822 30.9116C14.0355 30.0758 13.313 28.8858 13.313 27.6108C13.313 26.35 14.0214 25.1316 15.2822 24.2958C17.9314 22.5391 22.0822 22.5391 24.7172 24.2958C25.9639 25.1316 26.6864 26.3216 26.6864 27.5966C26.6864 28.8574 25.9781 30.0758 24.7172 30.9116C23.3997 31.79 21.6997 32.2433 19.9997 32.2433ZM16.4581 26.0808C15.7922 26.52 15.438 27.0724 15.438 27.6249C15.438 28.1774 15.8064 28.7158 16.4581 29.1549C18.3706 30.4441 21.6147 30.4441 23.5272 29.1549C24.1931 28.7158 24.5472 28.1633 24.5472 27.6108C24.5472 27.0583 24.1789 26.52 23.5272 26.0808C21.6289 24.7916 18.3847 24.8058 16.4581 26.0808Z" fill="white"/>
</g>
<defs>
<filter id="filter0_dd_117_370" x="-1" y="0" width="42" height="42" filterUnits="userSpaceOnUse" color-interpolation-filters="sRGB">
<feFlood flood-opacity="0" result="BackgroundImageFix"/>
<feColorMatrix in="SourceAlpha" type="matrix" values="0 0 0 0 0 0 0 0 0 0 0 0 0 0 0 0 0 0 127 0" result="hardAlpha"/>
<feOffset dy="4"/>
<feGaussianBlur stdDeviation="2"/>
<feComposite in2="hardAlpha" operator="out"/>
<feColorMatrix type="matrix" values="0 0 0 0 0 0 0 0 0 0 0 0 0 0 0 0 0 0 0.25 0"/>
<feBlend mode="normal" in2="BackgroundImageFix" result="effect1_dropShadow_117_370"/>
<feColorMatrix in="SourceAlpha" type="matrix" values="0 0 0 0 0 0 0 0 0 0 0 0 0 0 0 0 0 0 127 0" result="hardAlpha"/>
<feOffset dy="4"/>
<feGaussianBlur stdDeviation="2"/>
<feComposite in2="hardAlpha" operator="out"/>
<feColorMatrix type="matrix" values="0 0 0 0 0 0 0 0 0 0 0 0 0 0 0 0 0 0 0.25 0"/>
<feBlend mode="normal" in2="effect1_dropShadow_117_370" result="effect2_dropShadow_117_370"/>
<feBlend mode="normal" in="SourceGraphic" in2="effect2_dropShadow_117_370" result="shape"/>
</filter>
</defs>
</svg>
