<svg width="40" height="40" viewBox="0 0 40 40" fill="none" xmlns="http://www.w3.org/2000/svg">
<g filter="url(#filter0_dd_117_386)">
<path d="M20 31.28C19.575 31.28 19.15 31.1808 18.7958 30.9825C16.1466 29.5375 11.4858 28.0075 8.56748 27.625L8.15665 27.5683C6.30081 27.3416 4.77081 25.5991 4.77081 23.715V6.60164C4.77081 5.48247 5.20998 4.46247 6.01748 3.7258C6.82498 2.98914 7.87331 2.63497 8.97831 2.73414C12.095 2.97497 16.7983 4.5333 19.4616 6.20497L19.8016 6.4033C19.9008 6.45997 20.1133 6.45997 20.1983 6.41747L20.425 6.2758C23.0883 4.60414 27.7916 3.01747 30.9225 2.7483C30.9508 2.7483 31.0641 2.7483 31.0925 2.7483C32.1266 2.64914 33.1891 3.01747 33.9825 3.75414C34.79 4.4908 35.2291 5.5108 35.2291 6.62997V23.7291C35.2291 25.6275 33.6991 27.3558 31.8291 27.5825L31.3616 27.6391C28.4433 28.0216 23.7683 29.5658 21.1758 30.9966C20.8358 31.195 20.425 31.28 20 31.28ZM8.63831 4.84497C8.18498 4.84497 7.77415 5.0008 7.44831 5.2983C7.09415 5.62414 6.89581 6.09164 6.89581 6.60164V23.715C6.89581 24.5508 7.61831 25.3583 8.42581 25.4716L8.85081 25.5283C12.0383 25.9533 16.9258 27.5541 19.7591 29.0983C19.8866 29.155 20.0708 29.1691 20.1416 29.1408C22.975 27.5683 27.8908 25.9533 31.0925 25.5283L31.5741 25.4716C32.3816 25.3725 33.1041 24.5508 33.1041 23.715V6.6158C33.1041 6.09164 32.9058 5.6383 32.5516 5.2983C32.1833 4.97247 31.7158 4.81664 31.1916 4.84497C31.1633 4.84497 31.05 4.84497 31.0216 4.84497C28.3158 5.0858 23.9525 6.54497 21.5725 8.03247L21.3458 8.1883C20.5666 8.66997 19.4616 8.66997 18.7108 8.20247L18.3708 8.00414C15.9483 6.51664 11.585 5.07164 8.80831 4.84497C8.75165 4.84497 8.69498 4.84497 8.63831 4.84497Z" fill="white"/>
<path d="M20 30.09C19.4192 30.09 18.9375 29.6084 18.9375 29.0275V7.77753C18.9375 7.19669 19.4192 6.71503 20 6.71503C20.5808 6.71503 21.0625 7.19669 21.0625 7.77753V29.0275C21.0625 29.6225 20.5808 30.09 20 30.09Z" fill="white"/>
<path d="M13.9792 13.09H10.7917C10.2109 13.09 9.72919 12.6084 9.72919 12.0275C9.72919 11.4467 10.2109 10.965 10.7917 10.965H13.9792C14.56 10.965 15.0417 11.4467 15.0417 12.0275C15.0417 12.6084 14.56 13.09 13.9792 13.09Z" fill="white"/>
<path d="M15.0417 17.34H10.7917C10.2109 17.34 9.72919 16.8584 9.72919 16.2775C9.72919 15.6967 10.2109 15.215 10.7917 15.215H15.0417C15.6225 15.215 16.1042 15.6967 16.1042 16.2775C16.1042 16.8584 15.6225 17.34 15.0417 17.34Z" fill="white"/>
</g>
<defs>
<filter id="filter0_dd_117_386" x="-1" y="0" width="42" height="42" filterUnits="userSpaceOnUse" color-interpolation-filters="sRGB">
<feFlood flood-opacity="0" result="BackgroundImageFix"/>
<feColorMatrix in="SourceAlpha" type="matrix" values="0 0 0 0 0 0 0 0 0 0 0 0 0 0 0 0 0 0 127 0" result="hardAlpha"/>
<feOffset dy="4"/>
<feGaussianBlur stdDeviation="2"/>
<feComposite in2="hardAlpha" operator="out"/>
<feColorMatrix type="matrix" values="0 0 0 0 0 0 0 0 0 0 0 0 0 0 0 0 0 0 0.25 0"/>
<feBlend mode="normal" in2="BackgroundImageFix" result="effect1_dropShadow_117_386"/>
<feColorMatrix in="SourceAlpha" type="matrix" values="0 0 0 0 0 0 0 0 0 0 0 0 0 0 0 0 0 0 127 0" result="hardAlpha"/>
<feOffset dy="4"/>
<feGaussianBlur stdDeviation="2"/>
<feComposite in2="hardAlpha" operator="out"/>
<feColorMatrix type="matrix" values="0 0 0 0 0 0 0 0 0 0 0 0 0 0 0 0 0 0 0.25 0"/>
<feBlend mode="normal" in2="effect1_dropShadow_117_386" result="effect2_dropShadow_117_386"/>
<feBlend mode="normal" in="SourceGraphic" in2="effect2_dropShadow_117_386" result="shape"/>
</filter>
</defs>
</svg>
