<svg width="24" height="24" viewBox="0 0 24 24" fill="none" xmlns="http://www.w3.org/2000/svg">
<path d="M8.67003 22.75H2.00003C1.59003 22.75 1.25003 22.41 1.25003 22V16C1.25003 14.48 2.48003 13.25 4.00003 13.25H8.67003C9.08003 13.25 9.42003 13.59 9.42003 14V22C9.42003 22.41 9.08003 22.75 8.67003 22.75ZM2.75003 21.25H7.92003V14.75H4.00003C3.31003 14.75 2.75003 15.31 2.75003 16V21.25Z" fill="white"/>
<path d="M15.3302 22.75H8.66016C8.25016 22.75 7.91016 22.41 7.91016 22V12C7.91016 10.48 9.14016 9.25 10.6602 9.25H13.3302C14.8502 9.25 16.0802 10.48 16.0802 12V22C16.0802 22.41 15.7502 22.75 15.3302 22.75ZM9.42015 21.25H14.5902V12C14.5902 11.31 14.0302 10.75 13.3402 10.75H10.6702C9.98015 10.75 9.42015 11.31 9.42015 12V21.25Z" fill="white"/>
<path d="M22.0001 22.75H15.3301C14.9201 22.75 14.5801 22.41 14.5801 22V17C14.5801 16.59 14.9201 16.25 15.3301 16.25H20.0001C21.5201 16.25 22.7501 17.48 22.7501 19V22C22.7501 22.41 22.4101 22.75 22.0001 22.75ZM16.0801 21.25H21.2501V19C21.2501 18.31 20.6901 17.75 20.0001 17.75H16.0801V21.25Z" fill="white"/>
<path d="M13.6999 8.34999C13.4599 8.34999 13.1599 8.27997 12.8199 8.07997L11.9999 7.58998L11.1899 8.06999C10.3699 8.55999 9.82992 8.26998 9.62992 8.12998C9.42992 7.98998 8.99992 7.54998 9.20992 6.62998L9.39992 5.79997L8.71992 5.11997C8.29992 4.69997 8.14992 4.19997 8.29992 3.73997C8.44992 3.27997 8.85992 2.95996 9.43992 2.85996L10.3099 2.70997L10.7999 1.72999C11.3399 0.65999 12.6499 0.65999 13.1799 1.72999L13.6699 2.70997L14.5399 2.85996C15.1199 2.95996 15.5399 3.27997 15.6799 3.73997C15.8299 4.19997 15.6699 4.69997 15.2599 5.11997L14.5799 5.79997L14.7699 6.62998C14.9799 7.55998 14.5499 7.98999 14.3499 8.13999C14.2599 8.21999 14.0299 8.34999 13.6999 8.34999ZM11.9999 6.07997C12.2399 6.07997 12.4799 6.13999 12.6799 6.25999L13.2399 6.58998L13.1199 6.04997C13.0199 5.62997 13.1699 5.11998 13.4799 4.80998L13.9899 4.29997L13.3599 4.18998C12.9599 4.11998 12.5699 3.82998 12.3899 3.46998L11.9999 2.71998L11.6199 3.46998C11.4399 3.82998 11.0499 4.11998 10.6499 4.18998L10.0199 4.28999L10.5299 4.79997C10.8399 5.10997 10.9799 5.61999 10.8899 6.03999L10.7699 6.57997L11.3299 6.24998C11.5199 6.12998 11.7599 6.07997 11.9999 6.07997Z" fill="white"/>
</svg>
